# xmcd
#
# Track frame offsets: 
#        150
#        17533
#        38111
#        45423
#        50994
#        55778
#        62479
#        80939
#        84368
#        99937
#        115857
#        130327
#        151060
#        159190
#        167790
#        180316
#        193526
#        206352
#        212614
#        226773
#        229731
#        231737
#        234467
#        245814
#        254750
#        271211
#        286876
#
# Disc length: 4016 seconds
#
# Revision: 0
# Processed by: cddbd v1.5.2PL0 Copyright (c) Steve Scherf et al.
# Submitted via: ExactAudioCopyFreeDBPlugin 1.0
#
DISCID=6a0fae1b
DTITLE=DJ Chicano - Freestyle Mix Vol.3
DYEAR=2012
DGENRE=Hip-Hop
TTITLE0=The Boomin' System - LL Cool J
TTITLE1=It's My Beat - Sweet Tee
TTITLE2=Go See The Doctor - Kool Moe Dee
TTITLE3=A Nightmare - DJ Jazzy jeff and The Fresh Prince
TTITLE4=I'm Not playing - Ultimate Force 
TTITLE5=Spread Love(Remix)
TTITLE6=Pickin' Boogers - Biz Markie
TTITLE7=I Got It Made - Special ED
TTITLE8=Kool Is Back - The Meter
TTITLE9=Get Into It - Big Daddy Kane 
TTITLE10=The Mession - Special ED
TTITLE11=A Fly Girl - The Boogie Boys
TTITLE12=Mr.Big Stuff - Jean Knight
TTITLE13=Mr.Big Stuff - Heavy D and The Boyz
TTITLE14=To The Max - Stezo
TTITLE15=Do The James - Super Lover Cee and Casanova Rud
TTITLE16=Strong Island - J.V.C Force
TTITLE17=Slow Down - Brand Nubian
TTITLE18=Love Thang -  Intro
TTITLE19=Talkin' All That Jazz - Stetsasonic
TTITLE20=That's The Joint - A.J. Scratch
TTITLE21=That's The Joint - Funky 4+1
TTITLE22=Mt. Airy Groove - Pieces Of A Dream
TTITLE23=Set It Off (Instrumental) - Strafe
TTITLE24=Let The Music Play - Shannon
TTITLE25=I Wonder If I Take You Home - Lisa Lisa and Cult Jam
TTITLE26=19 - Paul Hardcastle
EXTD=
EXTT0=
EXTT1=
EXTT2=
EXTT3=
EXTT4=
EXTT5=
EXTT6=
EXTT7=
EXTT8=
EXTT9=
EXTT10=
EXTT11=
EXTT12=
EXTT13=
EXTT14=
EXTT15=
EXTT16=
EXTT17=
EXTT18=
EXTT19=
EXTT20=
EXTT21=
EXTT22=
EXTT23=
EXTT24=
EXTT25=
EXTT26=
PLAYORDER=
